<?xml version="1.0" encoding="UTF-8" standalone="no"?>
<!-- Created with Inkscape (http://www.inkscape.org/) -->

<svg
   xmlns:dc="http://purl.org/dc/elements/1.1/"
   xmlns:cc="http://creativecommons.org/ns#"
   xmlns:rdf="http://www.w3.org/1999/02/22-rdf-syntax-ns#"
   xmlns:svg="http://www.w3.org/2000/svg"
   xmlns="http://www.w3.org/2000/svg"
   xmlns:sodipodi="http://sodipodi.sourceforge.net/DTD/sodipodi-0.dtd"
   xmlns:inkscape="http://www.inkscape.org/namespaces/inkscape"
   width="48"
   height="48"
   viewBox="0 0 12.7 12.7"
   version="1.1"
   id="svg4524"
   sodipodi:docname="oax-logo-merged.svg"
   inkscape:version="0.92.1 r15371">
  <defs
     id="defs4518" />
  <sodipodi:namedview
     id="base"
     pagecolor="#ffffff"
     bordercolor="#666666"
     borderopacity="1.0"
     inkscape:pageopacity="0.0"
     inkscape:pageshadow="2"
     inkscape:zoom="18.5"
     inkscape:cx="24"
     inkscape:cy="24"
     inkscape:document-units="mm"
     inkscape:current-layer="layer1"
     showgrid="true"
     units="px"
     inkscape:window-width="1843"
     inkscape:window-height="1057"
     inkscape:window-x="69"
     inkscape:window-y="-8"
     inkscape:window-maximized="1">
    <inkscape:grid
       type="xygrid"
       id="grid5069"
       empspacing="4"
       snapvisiblegridlinesonly="false" />
  </sodipodi:namedview>
  <metadata
     id="metadata4521">
    <rdf:RDF>
      <cc:Work
         rdf:about="">
        <dc:format>image/svg+xml</dc:format>
        <dc:type
           rdf:resource="http://purl.org/dc/dcmitype/StillImage" />
        <dc:title></dc:title>
      </cc:Work>
    </rdf:RDF>
  </metadata>
  <g
     inkscape:label="Layer 1"
     inkscape:groupmode="layer"
     id="layer1"
     transform="translate(0,-284.3)">
    <path
       style="opacity:1;fill:#cccccc;fill-opacity:1;stroke-width:0.77611107"
       d="m 2.2340492,294.76594 a 5.8208332,5.8208332 0 0 1 1e-7,-8.2319 5.8208332,5.8208332 0 0 1 8.2319017,0 5.8208332,5.8208332 0 0 1 0,8.2319 l -4.1159511,-4.11595 z"
       id="path5071" />
    <path
       style="opacity:1;fill:#ffffff;fill-opacity:1;stroke-width:0.63500005"
       d="m 11.1125,290.64999 a 4.7624998,4.7624998 0 0 1 -4.7625001,4.7625 4.7624998,4.7624998 0 0 1 -4.7624998,-4.7625 4.7624998,4.7624998 0 0 1 4.7624998,-4.7625 4.7624998,4.7624998 0 0 1 4.7625001,4.7625 z"
       id="circle5073" />
    <path
       style="opacity:1;fill:#cccccc;fill-opacity:1;stroke-width:0.49388891"
       d="m 10.054167,290.64999 a 3.7041667,3.7041667 0 0 1 -3.7041671,3.70417 3.7041667,3.7041667 0 0 1 -3.7041666,-3.70417 3.7041667,3.7041667 0 0 1 3.7041666,-3.70416 3.7041667,3.7041667 0 0 1 3.7041671,3.70416 z"
       id="circle5075" />
    <path
       style="opacity:1;fill:#ffffff;fill-opacity:1;stroke-width:0.35277781"
       d="m 8.9958332,290.64999 a 2.6458333,2.6458333 0 0 1 -2.6458333,2.64584 2.6458333,2.6458333 0 0 1 -2.6458332,-2.64584 2.6458333,2.6458333 0 0 1 2.6458332,-2.64583 2.6458333,2.6458333 0 0 1 2.6458333,2.64583 z"
       id="circle5077" />
    <path
       style="opacity:1;fill:#00c853;fill-opacity:1;stroke-width:0.80000007"
       d="M 38 4 A 5.9999999 5.9999999 0 0 0 32 10 A 5.9999999 5.9999999 0 0 0 32.207031 11.550781 L 24 19.757812 L 28.242188 24 L 36.453125 15.789062 A 5.9999999 5.9999999 0 0 0 38 16 A 5.9999999 5.9999999 0 0 0 44 10 A 5.9999999 5.9999999 0 0 0 38 4 z "
       transform="matrix(0.26458333,0,0,0.26458333,0,284.3)"
       id="circle5081" />
    <path
       style="opacity:1;fill:#1976d2;fill-opacity:1;stroke-width:1.17260385"
       d="M 10 4 A 5.9999999 5.9999999 0 0 0 4 10 A 5.9999999 5.9999999 0 0 0 10 16 A 5.9999999 5.9999999 0 0 0 11.550781 15.792969 L 19.757812 24 L 24 19.757812 L 15.789062 11.546875 A 5.9999999 5.9999999 0 0 0 16 10 A 5.9999999 5.9999999 0 0 0 10 4 z "
       transform="matrix(0.26458333,0,0,0.26458333,0,284.3)"
       id="path5122" />
    <path
       style="opacity:1;fill:#d50000;fill-opacity:1;stroke-width:1.17260385"
       d="M 28.242188 24 L 24 28.242188 L 32.210938 36.453125 A 5.9999999 5.9999999 0 0 0 32 38 A 5.9999999 5.9999999 0 0 0 38 44 A 5.9999999 5.9999999 0 0 0 44 38 A 5.9999999 5.9999999 0 0 0 38 32 A 5.9999999 5.9999999 0 0 0 36.449219 32.207031 L 28.242188 24 z "
       transform="matrix(0.26458333,0,0,0.26458333,0,284.3)"
       id="rect5089" />
    <path
       style="opacity:1;fill:#ffab00;fill-opacity:1;stroke-width:0.80000007"
       d="M 19.757812 24 L 11.546875 32.210938 A 5.9999999 5.9999999 0 0 0 10 32 A 5.9999999 5.9999999 0 0 0 4 38 A 5.9999999 5.9999999 0 0 0 10 44 A 5.9999999 5.9999999 0 0 0 16 38 A 5.9999999 5.9999999 0 0 0 15.792969 36.449219 L 24 28.242188 L 19.757812 24 z "
       transform="matrix(0.26458333,0,0,0.26458333,0,284.3)"
       id="circle5085" />
    <path
       style="opacity:1;fill:#ffffff;fill-opacity:1;stroke-width:0.15136068"
       d="m 7.4852049,290.65009 a 1.135205,1.135205 0 0 1 -1.135205,1.1352 1.135205,1.135205 0 0 1 -1.135205,-1.1352 1.135205,1.135205 0 0 1 1.135205,-1.13521 1.135205,1.135205 0 0 1 1.135205,1.13521 z"
       id="circle5091" />
    <ellipse
       r="1.5875"
       cy="290.65009"
       cx="6.3499999"
       id="ellipse5136"
       style="opacity:1;fill:#999999;fill-opacity:1;stroke-width:0.21166669" />
  </g>
</svg>
