<?xml version="1.0" encoding="UTF-8" standalone="no"?>
<svg
   xmlns:dc="http://purl.org/dc/elements/1.1/"
   xmlns:cc="http://creativecommons.org/ns#"
   xmlns:rdf="http://www.w3.org/1999/02/22-rdf-syntax-ns#"
   xmlns:svg="http://www.w3.org/2000/svg"
   xmlns="http://www.w3.org/2000/svg"
   xmlns:xlink="http://www.w3.org/1999/xlink"
   xmlns:sodipodi="http://sodipodi.sourceforge.net/DTD/sodipodi-0.dtd"
   xmlns:inkscape="http://www.inkscape.org/namespaces/inkscape"
   sodipodi:docname="oax-merged.svg"
   inkscape:version="0.91 r13725"
   version="1.1"
   id="svg4136"
   width="24"
   viewBox="0 0 24 24"
   height="24"
   fill="#000000">
  <sodipodi:namedview
     inkscape:current-layer="svg4136"
     inkscape:window-maximized="1"
     inkscape:window-y="-8"
     inkscape:window-x="54"
     inkscape:cy="5.4874086"
     inkscape:cx="30.69199"
     inkscape:zoom="13.233768"
     inkscape:snap-tangential="false"
     inkscape:snap-perpendicular="false"
     showgrid="false"
     id="namedview4142"
     inkscape:window-height="1027"
     inkscape:window-width="1618"
     inkscape:pageshadow="2"
     inkscape:pageopacity="0"
     guidetolerance="10"
     gridtolerance="10000"
     objecttolerance="10000"
     borderopacity="1"
     bordercolor="#666666"
     pagecolor="#ffffff">
    <inkscape:grid
       type="xygrid"
       id="grid4148"
       empspacing="2"
       dotted="false"
       snapvisiblegridlinesonly="false" />
  </sodipodi:namedview>
  <metadata
     id="metadata4146">
    <rdf:RDF>
      <cc:Work
         rdf:about="">
        <dc:format>image/svg+xml</dc:format>
        <dc:type
           rdf:resource="http://purl.org/dc/dcmitype/StillImage" />
        <dc:title />
      </cc:Work>
    </rdf:RDF>
  </metadata>
  <defs
     id="defs4144">
    <linearGradient
       id="linearGradient5475"
       inkscape:collect="always">
      <stop
         id="stop5477"
         offset="0"
         style="stop-color:#000000;stop-opacity:1;" />
      <stop
         id="stop5479"
         offset="1"
         style="stop-color:#000000;stop-opacity:0;" />
    </linearGradient>
    <linearGradient
       gradientUnits="userSpaceOnUse"
       y2="16.223619"
       x2="17.600414"
       y1="3.6548245"
       x1="5.031621"
       id="linearGradient5481"
       xlink:href="#linearGradient5475"
       inkscape:collect="always" />
    <filter
       id="filter5723"
       inkscape:label="Drop Shadow"
       style="color-interpolation-filters:sRGB;">
      <feFlood
         id="feFlood5725"
         result="flood"
         flood-color="rgb(0,0,0)"
         flood-opacity="0.498039" />
      <feComposite
         id="feComposite5727"
         result="composite1"
         operator="in"
         in2="SourceGraphic"
         in="flood" />
      <feGaussianBlur
         id="feGaussianBlur5729"
         result="blur"
         stdDeviation="0.2"
         in="composite1" />
      <feOffset
         id="feOffset5731"
         result="offset"
         dy="0.2"
         dx="0.2" />
      <feComposite
         id="feComposite5733"
         result="composite2"
         operator="out"
         in2="SourceGraphic"
         in="offset" />
    </filter>
    <clipPath
       id="clipPath5737"
       clipPathUnits="userSpaceOnUse">
      <rect
         style="opacity:0.2;fill:#ff0000;fill-opacity:1;stroke:none;stroke-width:0.88582677;stroke-miterlimit:4;stroke-dasharray:7.08661413, 7.08661413;stroke-dashoffset:0"
         id="rect5739"
         width="18.775"
         height="22.952"
         x="2.6125002"
         y="0.52400017"
         rx="2.5"
         ry="2.5" />
    </clipPath>
    <filter
       id="filter6249"
       inkscape:label="Drop Shadow"
       style="color-interpolation-filters:sRGB;">
      <feFlood
         id="feFlood6251"
         result="flood"
         flood-color="rgb(0,0,0)"
         flood-opacity="0.498039" />
      <feComposite
         id="feComposite6253"
         result="composite1"
         operator="out"
         in2="SourceGraphic"
         in="flood" />
      <feGaussianBlur
         id="feGaussianBlur6255"
         result="blur"
         stdDeviation="0"
         in="composite1" />
      <feOffset
         id="feOffset6257"
         result="offset"
         dy="-0.2"
         dx="-0.2" />
      <feComposite
         id="feComposite6259"
         result="composite2"
         operator="in"
         in2="SourceGraphic"
         in="offset" />
    </filter>
  </defs>
  <rect
     ry="2.5"
     rx="2.5"
     y="0.52400017"
     x="2.6125002"
     height="22.952"
     width="18.775"
     id="rect5491"
     style="opacity:1;fill:#ececec;fill-opacity:1;stroke:none;stroke-width:0.88582677;stroke-miterlimit:4;stroke-dasharray:7.08661413, 7.08661413000000010;stroke-dashoffset:0" />
  <rect
     style="opacity:0.2;fill:#999999;fill-opacity:1;stroke:none;stroke-width:0.88582677;stroke-miterlimit:4;stroke-dasharray:7.08661413, 7.08661413000000010;stroke-dashoffset:0;filter:url(#filter6249)"
     id="rect5741"
     width="18.775"
     height="22.952"
     x="2.6125002"
     y="0.52400017"
     rx="2.5"
     ry="2.5" />
  <rect
     style="opacity:0.2;fill:#000000;fill-opacity:1;stroke:none;stroke-width:0.88582677;stroke-miterlimit:4;stroke-dasharray:7.08661413, 7.08661413;stroke-dashoffset:0;filter:url(#filter5723)"
     id="rect5493"
     width="18.775"
     height="22.952"
     x="2.6125002"
     y="0.52400017"
     rx="2.5"
     ry="2.5" />
  <path
     inkscape:connector-curvature="0"
     clip-path="url(#clipPath5737)"
     id="path4937"
     d="M 5.0332031,1.0253906 C 4.05981,1.0637276 3.2556279,1.7978016 3.1289062,2.7636719 c -0.06928,0.5260513 0.0734,1.0576276 0.3964844,1.4785156 l 0,0.00195 C 3.6290151,4.379023 3.7529554,4.4927519 3.8847656,4.5957 c 0.00426,0.00568 0.00739,0.011938 0.011719,0.017578 0.1030866,0.134187 0.2264231,0.2470192 0.3574218,0.3496094 0.00407,0.00541 0.00564,0.0122 0.00977,0.017578 l 0,0.00195 c 0.1027327,0.1337278 0.2250031,0.2472553 0.3554687,0.3496093 0.0034,0.0045 0.00633,0.00919 0.00977,0.013672 0.1015463,0.1321851 0.2228816,0.2441498 0.3515626,0.3457031 0.00374,0.00496 0.00598,0.010691 0.00977,0.015625 l 0,0.00195 c 0.1016067,0.1322654 0.2227902,0.2441074 0.3515625,0.3457031 0.00286,0.00379 0.00492,0.00795 0.00781,0.011719 l 0,0.00195 c 0.1004807,0.1308012 0.2205728,0.2409693 0.3476562,0.3417968 0.00319,0.00422 0.00459,0.00948 0.00781,0.013672 l 0.00195,0 c 0.088634,0.1153996 0.191146,0.2163773 0.3007761,0.3086062 -1.5174564,1.7232842 -2.2384237,4.0177511 -1.9394531,6.3125001 0.2352291,1.759067 1.0487923,3.390631 2.3125,4.636719 l -1.0078125,1.3125 c -0.1729959,-0.02342 -0.348314,-0.02405 -0.5214844,-0.002 -0.5260833,0.06904 -1.0030883,0.344737 -1.3261719,0.765624 -0.3230837,0.420889 -0.4657642,0.952465 -0.3964844,1.478516 0.069036,0.526083 0.344737,1.003089 0.765625,1.326172 0.00564,0.0043 0.011899,0.0075 0.017578,0.01172 0.103033,0.131848 0.2185196,0.255749 0.3535156,0.359375 0.00538,0.0041 0.012164,0.0057 0.017578,0.0098 0.102673,0.131035 0.2153153,0.254335 0.3496094,0.357422 0.00536,0.0041 0.012179,0.0057 0.017578,0.0098 0.1022344,0.13005 0.214212,0.253034 0.3476563,0.355469 0.00493,0.0038 0.010661,0.006 0.015625,0.0098 0.1017307,0.128931 0.2132281,0.249872 0.3457031,0.351563 0.0042,0.0032 0.00945,0.0046 0.013672,0.0078 0.1016884,0.128838 0.213309,0.249934 0.3457031,0.351563 0.00304,0.0023 0.00671,0.0035 0.00977,0.0059 0.1016718,0.128801 0.213341,0.249958 0.3457032,0.351563 0.0042,0.0032 0.00945,0.0046 0.013672,0.0078 0.1003386,0.125889 0.2100113,0.244088 0.3398438,0.34375 0.00231,0.0018 0.00549,0.0021 0.00781,0.0039 0.1009008,0.127109 0.2128565,0.24718 0.34375,0.347657 0.00188,0.0014 0.00397,0.0025 0.00586,0.0039 0.1002845,0.125772 0.2120663,0.244166 0.3417969,0.34375 0.00188,0.0014 0.00397,0.0025 0.00586,0.0039 0.099714,0.124549 0.209227,0.241079 0.3378906,0.339844 0.00188,0.0014 0.00398,0.0025 0.00586,0.0039 0.099317,0.123705 0.2080115,0.239692 0.3359375,0.337891 0,0 0.00195,0 0.00195,0 0.098928,0.123377 0.2105185,0.241788 0.3378907,0.339843 0.098869,0.12276 0.2088391,0.238374 0.3359374,0.335938 0.098282,0.121531 0.2060108,0.235295 0.3320313,0.332031 0.098068,0.121086 0.2044482,0.235595 0.3300781,0.332031 0.0955,0.117239 0.2008064,0.226269 0.3222656,0.320313 0.095572,0.117848 0.200529,0.227735 0.3222657,0.322266 0.09462,0.116611 0.1980982,0.226521 0.3183595,0.320312 0.09388,0.115573 0.197313,0.223258 0.316407,0.316406 0.09265,0.113999 0.195294,0.220302 0.3125,0.3125 0.09096,0.111958 0.191972,0.215662 0.30664,0.306641 0.0922,0.113975 0.195807,0.220188 0.3125,0.3125 0.09058,0.111192 0.190692,0.214242 0.304688,0.304688 0.08934,0.109625 0.188649,0.211304 0.300781,0.300781 0.08884,0.109062 0.187432,0.209684 0.298828,0.298828 0.08708,0.106872 0.18421,0.205189 0.292969,0.292969 0.08946,0.110276 0.188321,0.212739 0.300781,0.302734 0.08411,0.102217 0.177167,0.196641 0.28125,0.28125 0.08522,0.10488 0.182965,0.200519 0.289063,0.287109 0.08562,0.105247 0.182413,0.202267 0.289062,0.289063 0.08393,0.102457 0.177294,0.196388 0.28125,0.28125 0.08189,0.09997 0.172459,0.192134 0.273438,0.27539 0.08219,0.10087 0.175777,0.193388 0.277343,0.277344 0.08234,0.100763 0.175648,0.193517 0.277344,0.277344 0.08033,0.09763 0.170932,0.185942 0.269531,0.267578 0.07971,0.09703 0.167883,0.186303 0.265625,0.267578 0.07928,0.09661 0.168471,0.184611 0.265625,0.265625 0.07654,0.09303 0.162695,0.177292 0.25586,0.25586 0.07858,0.09616 0.167425,0.184822 0.263672,0.265625 0.07509,0.09109 0.160896,0.172775 0.251953,0.25 0.07837,0.09564 0.165842,0.183271 0.261718,0.263672 0.07222,0.08686 0.153402,0.166069 0.240235,0.240234 0.07637,0.09305 0.162885,0.177231 0.255859,0.255859 0.07077,0.08512 0.15152,0.161433 0.236328,0.234375 0.07336,0.08928 0.15741,0.170062 0.246094,0.246094 0.07153,0.08643 0.152317,0.164345 0.238281,0.238281 0.07061,0.0853 0.149699,0.16319 0.234375,0.236328 0.06982,0.08424 0.148866,0.160048 0.232422,0.232422 0.06748,0.08142 0.144276,0.154243 0.224609,0.22461 0.07069,0.08588 0.151426,0.162688 0.236329,0.236328 0.06637,0.07941 0.14204,0.149947 0.220703,0.21875 0.06664,0.08028 0.141553,0.153133 0.220703,0.222656 0.0652,0.07842 0.139643,0.148647 0.216797,0.216797 0.06467,0.07781 0.138396,0.147129 0.214844,0.214844 0.06409,0.07711 0.137236,0.145691 0.21289,0.21289 0.06318,0.076 0.134566,0.144556 0.208984,0.210938 0.06114,0.07343 0.131465,0.138666 0.203126,0.203125 0.06247,0.07536 0.133519,0.143045 0.207031,0.208984 0.06077,0.07278 0.132005,0.137236 0.203125,0.201172 0.05815,0.06947 0.125748,0.129998 0.193359,0.191406 0.06141,0.07399 0.131064,0.140172 0.203125,0.205078 0.05569,0.06615 0.119288,0.124778 0.183594,0.183594 0.05895,0.07091 0.12655,0.132734 0.195312,0.195313 0.05442,0.06482 0.117004,0.121875 0.179688,0.179687 0.05747,0.06913 0.122647,0.130179 0.189453,0.191406 0.05295,0.06297 0.115016,0.117474 0.175781,0.173829 0.05624,0.06747 0.120395,0.127578 0.185547,0.1875 0.05046,0.05968 0.108504,0.112304 0.166016,0.166015 0.05331,0.06384 0.114474,0.120638 0.175781,0.177735 0.05262,0.06256 0.113496,0.117795 0.173828,0.173828 0.04927,0.05817 0.108081,0.107659 0.164063,0.160156 0.04916,0.05837 0.106218,0.109406 0.162109,0.162109 0.0489,0.05809 0.104586,0.109635 0.160156,0.16211 0.04625,0.05484 0.100139,0.102497 0.152344,0.152343 0.04769,0.05696 0.104115,0.106599 0.158203,0.158204 0.04727,0.05614 0.102749,0.105345 0.15625,0.15625 0.04463,0.05263 0.09635,0.09848 0.146485,0.146484 0.04455,0.05269 0.09642,0.09842 0.146484,0.146484 0.04335,0.05126 0.094,0.09568 0.142578,0.142578 0.04158,0.04917 0.09033,0.09156 0.136719,0.136719 0.04474,0.05314 0.09614,0.09997 0.146484,0.148438 0.0379,0.04437 0.08315,0.08197 0.125,0.123047 0.04149,0.04928 0.08845,0.0934 0.134766,0.138671 0.03925,0.04621 0.08539,0.08624 0.128906,0.128907 0.03789,0.04461 0.08313,0.08174 0.125,0.123046 0.03809,0.04491 0.08288,0.08343 0.125,0.125 0.03617,0.04254 0.07739,0.07961 0.117187,0.119141 0.03629,0.04272 0.0792,0.07944 0.119141,0.119141 0.03636,0.04268 0.07914,0.07949 0.119141,0.11914 0.03139,0.03659 0.06942,0.06721 0.103515,0.101563 0.03601,0.04246 0.07758,0.07966 0.117188,0.119141 0.03087,0.03589 0.06808,0.06587 0.101562,0.09961 0.02988,0.03499 0.06531,0.0647 0.09766,0.09766 0.03314,0.03907 0.07123,0.07282 0.107422,0.109375 0.02877,0.03345 0.06271,0.06217 0.09375,0.09375 0.02895,0.03384 0.06444,0.06181 0.0957,0.09375 0.02754,0.03215 0.06022,0.05941 0.08984,0.08984 0.02607,0.03044 0.05604,0.05703 0.08398,0.08594 0.02872,0.03371 0.06275,0.06191 0.09375,0.09375 0.02403,0.02786 0.05252,0.05156 0.07813,0.07813 0.02336,0.02723 0.05131,0.05016 0.07617,0.07617 0.0266,0.03114 0.05738,0.05835 0.08594,0.08789 0.01954,0.02255 0.04387,0.0408 0.06445,0.0625 0.02303,0.02696 0.04972,0.0504 0.07422,0.07617 0.02279,0.02649 0.05,0.04889 0.07422,0.07422 0.01719,0.01978 0.03865,0.03556 0.05664,0.05469 0.02188,0.02555 0.04711,0.04779 0.07031,0.07227 0.0015,0.0018 0.0023,0.0041 0.0039,0.0059 0.01427,0.01495 0.03016,0.02844 0.04492,0.04297 0.01942,0.0227 0.04203,0.04259 0.0625,0.06445 0.01625,0.01881 0.03576,0.03451 0.05273,0.05273 0.01556,0.01801 0.03455,0.03331 0.05078,0.05078 0.01652,0.01912 0.03742,0.03422 0.05469,0.05273 9.48e-4,0.0011 10e-4,0.0028 0.002,0.0039 0.01194,0.01275 0.02678,0.02271 0.03906,0.03516 0.01297,0.01499 0.02759,0.02835 0.04102,0.04297 0.01205,0.01391 0.02662,0.02548 0.03906,0.03906 0.0099,0.01147 0.02104,0.02195 0.03125,0.0332 0.01199,0.01392 0.02667,0.02546 0.03906,0.03906 0.01778,0.02046 0.03996,0.03688 0.05859,0.05664 0.0015,0.0018 0.0023,0.0041 0.0039,0.0059 0.0051,0.0053 0.01051,0.01035 0.01563,0.01563 0.0081,0.0094 0.01712,0.01812 0.02539,0.02734 0.0099,0.01137 0.02304,0.0201 0.0332,0.03125 0.0084,0.0097 0.01871,0.01776 0.02734,0.02734 0,0 0.002,0.002 0.002,0.002 0.0018,0.0021 0.004,0.0038 0.0059,0.0059 0,0 0.002,0.002 0.002,0.002 0.0012,0.0014 0.0027,0.0025 0.0039,0.0039 0.0082,0.0093 0.01901,0.01622 0.02734,0.02539 0.01078,0.0119 0.02408,0.02155 0.03516,0.0332 0.01367,0.01426 0.02885,0.02714 0.04297,0.04102 0.0063,0.0061 0.01317,0.01155 0.01953,0.01758 0.04286,0.03931 0.08046,0.08345 0.126953,0.119141 0.0047,0.0038 0.0089,0.008 0.01367,0.01172 0.0037,0.0029 0.0061,0.0069 0.0098,0.0098 l 0,0.002 c 0,0 0.002,0.002 0.002,0.002 3.78e-4,2.95e-4 0.0016,-2.94e-4 0.002,0 0.0015,0.0011 0.0024,0.0028 0.0039,0.0039 0.0015,0.0011 0.0024,0.0028 0.0039,0.0039 l 0,0.002 c 3.8e-4,2.92e-4 0.0016,-2.92e-4 0.002,0 0.03628,0.02778 0.07738,0.04718 0.115235,0.07227 0.291409,0.193391 0.622657,0.312954 0.96875,0.335937 0.130367,0.0087 0.263082,0.0056 0.394531,-0.01172 0.3938,-0.05183 0.759917,-0.220991 1.054687,-0.478515 0.09879,-0.08631 0.190426,-0.181512 0.271485,-0.28711 3.39e-4,-4.42e-4 -3.39e-4,-0.0015 0,-0.002 0.322032,-0.420581 0.465657,-0.951321 0.396484,-1.476562 -0.02338,-0.173045 -0.06939,-0.342791 -0.136719,-0.503906 l 0,-0.002 0.179688,-0.232422 7.933594,0 c 0.03241,0.03162 0.06135,0.06646 0.0957,0.0957 0.03909,0.03931 0.07516,0.08142 0.117187,0.117187 0.03785,0.03785 0.0727,0.07874 0.113282,0.113281 0.03496,0.03486 0.06622,0.07341 0.103515,0.105469 0.03782,0.03792 0.07272,0.07866 0.113281,0.113281 0.03708,0.03677 0.07165,0.07575 0.111328,0.109375 0.03299,0.03235 0.06264,0.06777 0.09766,0.09766 0.03322,0.03267 0.06237,0.06945 0.09766,0.09961 0.03198,0.03132 0.06182,0.06475 0.0957,0.09375 0.03168,0.03099 0.0602,0.06504 0.09375,0.09375 0.03072,0.02996 0.05738,0.06397 0.08984,0.0918 0.02846,0.02764 0.05403,0.05816 0.08398,0.08398 0.02999,0.02916 0.05624,0.06271 0.08789,0.08984 0.02893,0.02786 0.05548,0.05799 0.08594,0.08398 0.02535,0.02422 0.0477,0.05143 0.07422,0.07422 0.02597,0.02488 0.04897,0.05279 0.07617,0.07617 0.02535,0.02422 0.0477,0.05143 0.07422,0.07422 0.02408,0.02288 0.04518,0.04871 0.07031,0.07031 0.02278,0.02159 0.04269,0.04597 0.06641,0.06641 0.02214,0.02092 0.04143,0.04461 0.06445,0.06445 0.0215,0.02026 0.04017,0.04326 0.0625,0.0625 0.01983,0.01858 0.03612,0.04087 0.05664,0.05859 0.01949,0.01824 0.03648,0.03923 0.05664,0.05664 0.01792,0.01667 0.03425,0.03481 0.05273,0.05078 0.01587,0.01475 0.02861,0.03268 0.04492,0.04687 0.01952,0.01819 0.03645,0.03928 0.05664,0.05664 0.01117,0.01022 0.02182,0.0252 0.0332,0.03516 0.01621,0.015 0.0302,0.03244 0.04687,0.04687 0.01493,0.01366 0.02766,0.02978 0.04297,0.04297 0.01058,0.0096 0.02047,0.01994 0.03125,0.0293 0.0098,0.009 0.01733,0.02054 0.02734,0.0293 0.01225,0.01118 0.02265,0.0243 0.03516,0.03516 0.01094,0.0099 0.02011,0.02163 0.03125,0.03125 0.0065,0.0059 0.01291,0.01182 0.01953,0.01758 0.0065,0.0058 0.01102,0.01379 0.01758,0.01953 0,0 0.002,0 0.002,0 0,0 0.002,0.002 0.002,0.002 0.0058,0.0052 0.01171,0.0144 0.01758,0.01953 0.0048,0.0043 0.0088,0.0095 0.01367,0.01367 0.0045,0.004 0.0092,0.0117 0.01367,0.01563 3.3e-4,2.97e-4 0.0016,-2.97e-4 0.002,0 0.0014,0.0012 0.0025,0.0027 0.0039,0.0039 0.0014,0.0012 0.0025,0.0027 0.0039,0.0039 0.0021,0.0018 0.0038,0.004 0.0059,0.0059 3.54e-4,3.13e-4 -3.54e-4,0.0016 0,0.002 0.0014,0.0012 0.0025,0.0027 0.0039,0.0039 6.89e-4,6.04e-4 0.0013,0.0014 0.002,0.002 0.09767,0.0854 0.204613,0.159936 0.316407,0.224609 7.84e-4,4.54e-4 0.0012,0.0015 0.002,0.002 0.112003,0.0644 0.230635,0.116425 0.353516,0.158204 0.124456,0.0425 0.252438,0.07443 0.384765,0.0918 0.126899,0.01666 0.254916,0.01927 0.380859,0.01172 0.0045,-2.71e-4 0.0092,3.02e-4 0.01367,0 0.260114,-0.01737 0.514057,-0.08626 0.748047,-0.201172 4.93e-4,-2.42e-4 0.0015,2.43e-4 0.002,0 0.117222,-0.0577 0.228814,-0.126298 0.333985,-0.207031 l 0.002,0 c 0.42054,-0.323076 0.69467,-0.800345 0.763672,-1.326172 0.01726,-0.13145 0.02043,-0.26417 0.01172,-0.394531 -4.3e-5,-6.45e-4 4.4e-5,-0.0013 0,-0.002 -0.0014,-0.02114 -0.0077,-0.04145 -0.0098,-0.0625 -0.01087,-0.108951 -0.02628,-0.216879 -0.05469,-0.322266 -0.02088,-0.07783 -0.05382,-0.151688 -0.08398,-0.226562 -0.01852,-0.04582 -0.03081,-0.09423 -0.05273,-0.138672 -7.89e-4,-0.0016 -0.0031,-0.0023 -0.0039,-0.0039 -0.05652,-0.11482 -0.124499,-0.224832 -0.203125,-0.328126 l 0,-0.002 c -0.0017,-0.0022 -0.0042,-0.0037 -0.0059,-0.0059 -0.0798,-0.102976 -0.168873,-0.196789 -0.265625,-0.28125 -6.66e-4,-5.86e-4 -0.0013,-0.0014 -0.002,-0.002 -0.0035,-0.0031 -0.0062,-0.0067 -0.0098,-0.0098 0,0 -0.002,-0.002 -0.002,-0.002 -0.0027,-0.0025 -0.0071,-0.0073 -0.0098,-0.0098 -0.0041,-0.0037 -0.0096,-0.01001 -0.01367,-0.01367 -0.0048,-0.0043 -0.0088,-0.0095 -0.01367,-0.01367 -0.01688,-0.01562 -0.03145,-0.03382 -0.04883,-0.04883 -0.01651,-0.01534 -0.03184,-0.03213 -0.04883,-0.04687 -0.01093,-0.0099 -0.02012,-0.02159 -0.03125,-0.03125 -0.01159,-0.01055 -0.02138,-0.02294 -0.0332,-0.0332 -0.01292,-0.0118 -0.0239,-0.02567 -0.03711,-0.03711 -0.01088,-0.01057 -0.0221,-0.02485 -0.0332,-0.03516 -0.01621,-0.015 -0.0302,-0.03244 -0.04687,-0.04687 -0.01768,-0.01632 -0.03451,-0.03319 -0.05273,-0.04883 -0.03316,-0.0327 -0.06243,-0.06941 -0.09766,-0.09961 -0.01689,-0.01563 -0.03144,-0.03381 -0.04883,-0.04883 -0.01988,-0.0186 -0.03801,-0.0389 -0.05859,-0.05664 -0.02022,-0.01894 -0.03765,-0.04055 -0.05859,-0.05859 -0.0215,-0.02026 -0.04017,-0.04326 -0.0625,-0.0625 -0.02281,-0.02155 -0.04267,-0.046 -0.06641,-0.06641 -0.02345,-0.02222 -0.04393,-0.04736 -0.06836,-0.06836 -0.02237,-0.02125 -0.04118,-0.04626 -0.06445,-0.06641 -0.0266,-0.02555 -0.05024,-0.05415 -0.07813,-0.07813 -0.02663,-0.02551 -0.05021,-0.05419 -0.07813,-0.07813 -0.02718,-0.0261 -0.05155,-0.05563 -0.08008,-0.08008 -0.02958,-0.0285 -0.05671,-0.0594 -0.08789,-0.08594 -0.02728,-0.0262 -0.05145,-0.05553 -0.08008,-0.08008 -0.02846,-0.02764 -0.05403,-0.05816 -0.08398,-0.08398 -0.03231,-0.03169 -0.06144,-0.06638 -0.0957,-0.0957 -0.03366,-0.03292 -0.06385,-0.06926 -0.09961,-0.09961 -0.03144,-0.03062 -0.06048,-0.06341 -0.09375,-0.0918 -0.03191,-0.03138 -0.05993,-0.06663 -0.09375,-0.0957 -0.03769,-0.03748 -0.0729,-0.07711 -0.113281,-0.111328 -0.03188,-0.03136 -0.05996,-0.06666 -0.09375,-0.0957 -0.0382,-0.0383 -0.07424,-0.07835 -0.115235,-0.113281 -0.03731,-0.03726 -0.07137,-0.07728 -0.111328,-0.111328 0.696958,-0.79091 1.233178,-1.69746 1.570313,-2.675781 0.297417,-0.863068 0.446782,-1.777226 0.435547,-2.703126 -0.0037,-0.308633 -0.02443,-0.617884 -0.06445,-0.927734 -0.05892,-0.440598 -0.155695,-0.872483 -0.285157,-1.292969 -0.0643,-0.209075 -0.135803,-0.416526 -0.216796,-0.61914 -3.2e-4,-7.99e-4 -0.0016,-0.0012 -0.002,-0.002 -0.1624,-0.405896 -0.357559,-0.797904 -0.583984,-1.171875 -4.67e-4,-7.71e-4 -0.0015,-0.0012 -0.002,-0.002 -0.114519,-0.188858 -0.237096,-0.373565 -0.367188,-0.552735 -0.127401,-0.175464 -0.260493,-0.346521 -0.402343,-0.511719 -5.98e-4,-6.96e-4 -0.0014,-0.0013 -0.002,-0.002 -0.0012,-0.0014 -0.0027,-0.0025 -0.0039,-0.0039 -0.0054,-0.0063 -0.01218,-0.01133 -0.01758,-0.01758 -0.13647,-0.158931 -0.280281,-0.312386 -0.429687,-0.460938 l 1.007812,-1.3125 c 0.172836,0.02332 0.348487,0.02409 0.521485,0.002 0.3938,-0.05183 0.759917,-0.22099 1.054687,-0.478515 0.09879,-0.08631 0.190425,-0.181512 0.271484,-0.287109 3.39e-4,-4.43e-4 -3.38e-4,-0.0015 0,-0.002 0.322033,-0.420581 0.465658,-0.951321 0.396485,-1.476562 -0.01741,-0.132315 -0.04926,-0.262281 -0.0918,-0.386719 -0.04287,-0.125391 -0.09765,-0.245389 -0.164063,-0.359375 -0.0051,-0.0089 -0.0123,-0.01656 -0.01758,-0.02539 -0.02309,-0.03832 -0.05249,-0.07266 -0.07813,-0.109376 -0.04144,-0.05927 -0.07915,-0.121156 -0.126953,-0.175781 -0.0019,-0.0021 -0.004,-0.0037 -0.0059,-0.0059 -0.0018,-0.0021 -0.004,-0.0038 -0.0059,-0.0059 0,0 0,-0.002 0,-0.002 -0.0024,-0.0028 -0.0073,-0.007 -0.0098,-0.0098 -0.0036,-0.0041 -0.01003,-0.0096 -0.01367,-0.01367 -0.0042,-0.0048 -0.01136,-0.01084 -0.01563,-0.01563 -0.0057,-0.0066 -0.0137,-0.01109 -0.01953,-0.01758 -0.0027,-0.0031 -0.007,-0.0047 -0.0098,-0.0078 -0.0031,-0.0033 -0.0066,-0.0065 -0.0098,-0.0098 0,0 -0.002,-0.002 -0.002,-0.002 0,0 0,-0.002 0,-0.002 -0.0048,-0.0055 -0.01074,-0.01016 -0.01563,-0.01563 -0.0114,-0.01319 -0.02535,-0.0242 -0.03711,-0.03711 0,0 -0.002,-0.002 -0.002,-0.002 -0.0085,-0.0096 -0.01869,-0.01786 -0.02734,-0.02734 -0.0088,-0.01001 -0.02033,-0.0175 -0.0293,-0.02734 -0.0094,-0.01077 -0.0197,-0.02067 -0.0293,-0.03125 -0.01315,-0.01527 -0.02934,-0.02809 -0.04297,-0.04297 -0.0144,-0.01661 -0.03387,-0.03267 -0.04883,-0.04883 -0.01177,-0.01345 -0.02692,-0.02396 -0.03906,-0.03711 -0.01324,-0.01528 -0.02925,-0.02807 -0.04297,-0.04297 -0.01895,-0.02203 -0.04061,-0.04127 -0.06055,-0.0625 -0.01237,-0.01414 -0.02823,-0.02526 -0.04102,-0.03906 -0.01886,-0.02199 -0.0407,-0.04131 -0.06055,-0.0625 -0.01777,-0.02056 -0.03997,-0.03678 -0.05859,-0.05664 -0.01924,-0.0223 -0.04225,-0.04102 -0.0625,-0.0625 -0.0193,-0.02237 -0.04218,-0.04096 -0.0625,-0.0625 -0.02279,-0.02649 -0.05,-0.04889 -0.07422,-0.07422 -0.01839,-0.02116 -0.04124,-0.03818 -0.06055,-0.05859 -0.02541,-0.02975 -0.05484,-0.0557 -0.08203,-0.08398 -0.02195,-0.02534 -0.049,-0.04605 -0.07227,-0.07031 -0.024,-0.0279 -0.05255,-0.05152 -0.07812,-0.07813 -0.02514,-0.0293 -0.05515,-0.05415 -0.08203,-0.08203 -0.02454,-0.02861 -0.05388,-0.05282 -0.08008,-0.08008 -0.02833,-0.03326 -0.06124,-0.06231 -0.0918,-0.09375 -0.02902,-0.03383 -0.06437,-0.06183 -0.0957,-0.09375 -0.02734,-0.03169 -0.06047,-0.05788 -0.08984,-0.08789 -0.02785,-0.03252 -0.05985,-0.06103 -0.08984,-0.0918 -0.03184,-0.03748 -0.06886,-0.0703 -0.103516,-0.105469 -0.03254,-0.03803 -0.07197,-0.06985 -0.107422,-0.105469 -0.03086,-0.03588 -0.0681,-0.06589 -0.101562,-0.09961 -0.03286,-0.03847 -0.07159,-0.07141 -0.107422,-0.107422 -0.03346,-0.03918 -0.07282,-0.07275 -0.109375,-0.109375 -0.03341,-0.03923 -0.07288,-0.0727 -0.109375,-0.109375 -0.03831,-0.0453 -0.0826,-0.08505 -0.125,-0.126953 -0.0338,-0.03941 -0.0744,-0.07257 -0.111328,-0.109375 -0.0398,-0.04706 -0.08665,-0.08747 -0.13086,-0.130859 -0.03531,-0.04123 -0.07651,-0.07685 -0.115234,-0.115235 -0.04178,-0.04954 -0.09006,-0.09319 -0.136719,-0.138671 -0.03732,-0.04362 -0.08191,-0.08066 -0.123047,-0.121094 -0.04327,-0.0513 -0.09409,-0.09563 -0.142578,-0.142578 -0.04031,-0.0472 -0.08804,-0.08739 -0.132812,-0.13086 -0.04226,-0.04984 -0.09147,-0.09297 -0.138672,-0.138672 -0.04335,-0.05126 -0.09401,-0.09568 -0.142578,-0.142578 -0.04276,-0.05056 -0.09278,-0.09431 -0.140625,-0.140625 -0.04643,-0.0553 -0.09987,-0.104052 -0.152344,-0.154297 -0.04719,-0.0558 -0.102879,-0.10369 -0.15625,-0.154296 -0.0453,-0.05327 -0.09749,-0.09993 -0.148438,-0.148438 -0.04624,-0.05484 -0.100139,-0.102498 -0.152343,-0.152344 -0.04988,-0.05957 -0.107199,-0.112318 -0.164063,-0.166015 -0.05065,-0.06006 -0.110186,-0.111981 -0.167969,-0.166016 -0.04877,-0.05752 -0.104819,-0.10819 -0.160156,-0.160156 -0.05086,-0.06048 -0.109893,-0.113582 -0.167969,-0.167969 -0.05206,-0.06191 -0.112261,-0.116355 -0.171875,-0.171875 -0.05147,-0.06121 -0.111064,-0.114954 -0.169921,-0.169922 -0.05478,-0.06561 -0.118416,-0.123167 -0.181641,-0.181641 -0.05367,-0.06392 -0.116026,-0.118675 -0.177735,-0.175781 -0.05531,-0.06616 -0.119702,-0.124707 -0.183593,-0.183593 -0.05664,-0.06776 -0.121857,-0.127381 -0.1875,-0.1875 -0.05627,-0.06712 -0.120431,-0.127896 -0.185547,-0.1875 -0.0583,-0.06983 -0.125514,-0.131651 -0.19336,-0.19336 -0.05795,-0.06921 -0.126024,-0.130198 -0.193359,-0.191406 -0.06006,-0.07205 -0.129019,-0.135813 -0.199219,-0.199219 -0.06162,-0.07372 -0.130879,-0.140455 -0.203125,-0.205078 -0.05884,-0.06998 -0.126852,-0.131609 -0.195312,-0.193359 -0.06353,-0.07664 -0.135992,-0.144053 -0.210938,-0.210938 -0.06242,-0.07476 -0.133698,-0.141618 -0.207031,-0.207031 -0.06262,-0.0752 -0.135347,-0.141257 -0.208984,-0.207031 -0.06597,-0.0797 -0.140469,-0.151558 -0.21875,-0.220704 -0.06651,-0.07978 -0.141809,-0.151597 -0.220703,-0.220703 -0.06488,-0.07749 -0.13824,-0.147459 -0.214844,-0.214843 -0.06602,-0.07951 -0.142411,-0.149788 -0.220703,-0.21875 -0.06935,-0.08402 -0.147486,-0.160141 -0.230469,-0.232422 -0.0699,-0.08409 -0.148808,-0.160201 -0.232422,-0.232422 -0.06683,-0.08004 -0.143349,-0.15143 -0.222656,-0.220703 -0.07194,-0.0874 -0.155538,-0.165531 -0.242188,-0.240235 -0.07079,-0.08532 -0.149489,-0.163213 -0.234375,-0.236328 -0.07231,-0.08747 -0.155115,-0.165555 -0.242187,-0.240234 -0.07272,-0.08789 -0.15455,-0.167234 -0.242188,-0.242188 -0.07373,-0.08934 -0.156977,-0.170089 -0.246093,-0.246093 -0.07463,-0.09044 -0.157668,-0.173239 -0.248047,-0.25 -0.07567,-0.0918 -0.162026,-0.17425 -0.253907,-0.251953 -0.07609,-0.09222 -0.16145,-0.175936 -0.253906,-0.253907 -0.0771,-0.09368 -0.163865,-0.178807 -0.257812,-0.257812 -0.07654,-0.09302 -0.162696,-0.177292 -0.25586,-0.25586 -0.08003,-0.09794 -0.171189,-0.187551 -0.269531,-0.269531 -0.07826,-0.09509 -0.166107,-0.181766 -0.261719,-0.261719 -0.0817,-0.09999 -0.172662,-0.192066 -0.273437,-0.27539 -0.08232,-0.10002 -0.173921,-0.192202 -0.275391,-0.275391 -0.08108,-0.0981 -0.171925,-0.187677 -0.271484,-0.269531 -0.08164,-0.09949 -0.172875,-0.190524 -0.273438,-0.273438 -0.08335,-0.102283 -0.177999,-0.196381 -0.28125,-0.28125 C 30.498613,11.80734 30.401153,11.711455 30.294922,11.625 30.20955,11.520784 30.115838,11.423871 30.009766,11.337891 29.924792,11.23404 29.830129,11.138511 29.724609,11.052734 29.636546,10.94436 29.538048,10.844641 29.427734,10.755859 29.338201,10.646288 29.23928,10.544455 29.126953,10.455078 29.040869,10.350501 28.944866,10.254063 28.837891,10.167969 28.746123,10.05485 28.645231,9.9491436 28.529297,9.8574219 28.441282,9.7501739 28.342346,9.6522892 28.232422,9.5644531 28.140667,9.4511647 28.037847,9.3457743 27.921875,9.2539062 27.829634,9.1405107 27.727883,9.0351729 27.611328,8.9433594 27.518851,8.8297063 27.417683,8.722819 27.300781,8.6308594 27.208365,8.5171149 27.105143,8.4123674 26.988281,8.3203125 26.893249,8.20265 26.787081,8.0925909 26.666016,7.9980469 26.571927,7.8820547 26.469071,7.7731236 26.349609,7.6796875 26.252698,7.5595563 26.145485,7.4475742 26.021484,7.3515625 25.925948,7.2337958 25.818935,7.1237709 25.697266,7.0292969 25.598397,6.9065391 25.490378,6.7909218 25.363281,6.6933594 25.265448,6.5727595 25.158405,6.4593895 25.033203,6.3632812 c -0.0012,-8.902e-4 -0.0027,-0.00107 -0.0039,-0.00195 -0.09785,-0.1206263 -0.204853,-0.233952 -0.330078,-0.3300781 0,0 -0.002,-0.00195 -0.002,-0.00195 -0.09868,-0.1223725 -0.207226,-0.2366812 -0.333985,-0.3339844 0,0 -0.002,0 -0.002,0 C 24.26174,5.5712293 24.153565,5.4539319 24.025303,5.355475 l -0.002,0 c 0,0 -0.002,-0.00195 -0.002,-0.00195 -0.09966,-0.1244394 -0.209323,-0.241152 -0.33789,-0.3398437 l -0.002,0 c -0.0019,-0.00145 -0.004,-0.00247 -0.0059,-0.00391 -0.09971,-0.1245501 -0.209226,-0.2410778 -0.33789,-0.3398437 -0.0026,-0.00199 -0.0052,-0.00388 -0.0078,-0.00586 -0.100109,-0.1253955 -0.210441,-0.2424646 -0.339844,-0.3417969 -0.0023,-0.00178 -0.0055,-0.00213 -0.0078,-0.00391 -0.100902,-0.1271096 -0.210903,-0.2471786 -0.341797,-0.3476563 -0.0038,-0.00288 -0.0079,-0.00496 -0.01172,-0.00781 -0.100675,-0.1266179 -0.21133,-0.2455536 -0.341797,-0.3457031 -0.0049,-0.00377 -0.01068,-0.00604 -0.01563,-0.00977 -0.100637,-0.1265351 -0.211402,-0.2456089 -0.341796,-0.3457031 -0.0038,-0.00289 -0.0079,-0.00495 -0.01172,-0.00781 -0.101673,-0.1288028 -0.215292,-0.2499566 -0.347657,-0.3515624 -0.0045,-0.00345 -0.0092,-0.00636 -0.01367,-0.00977 -0.101851,-0.1291955 -0.214952,-0.2496954 -0.347657,-0.3515625 -0.0054,-0.00412 -0.01218,-0.00571 -0.01758,-0.00977 -0.102235,-0.1300517 -0.214211,-0.253033 -0.347656,-0.3554688 -0.0057,-0.00434 -0.01188,-0.00744 -0.01758,-0.011719 -0.102497,-0.1306376 -0.215658,-0.2526443 -0.34961,-0.3554687 -0.0061,-0.00467 -0.0134,-0.00713 -0.01953,-0.011719 C 20.354042,1.6651258 20.24038,1.5410609 20.105469,1.4375 19.684581,1.1144163 19.153004,0.97173543 18.626953,1.0410156 c -0.526083,0.069036 -1.003089,0.3447371 -1.326172,0.765625 -0.323084,0.420888 -0.465764,0.9524643 -0.396484,1.4785156 0.02336,0.1732215 0.06932,0.3426334 0.136719,0.5039063 l -1.003907,1.3085937 c -1.297232,-0.7600021 -2.782372,-1.1390716 -4.285156,-1.09375 -0.266533,0.00819 -0.53249,0.029701 -0.796875,0.064453 C 10.40997,4.1403872 9.875754,4.2703237 9.359375,4.4511717 9.319974,4.4143427 9.278417,4.3810637 9.2363281,4.347656 9.2345681,4.345336 9.2341981,4.342156 9.2324181,4.339846 9.1327545,4.2100185 9.0145649,4.1003322 8.8886719,4 8.8854819,3.99578 8.8840819,3.99052 8.8808619,3.986328 8.7792507,3.8539723 8.6581009,3.7422911 8.5292969,3.640625 8.5269769,3.637575 8.5257669,3.633905 8.5234369,3.630855 8.421805,3.4984687 8.3007153,3.3868408 8.171875,3.2851562 8.168685,3.2809362 8.167285,3.2756862 8.164065,3.2714842 8.0623686,3.1390147 7.9414331,3.0275076 7.8125,2.9257812 7.8087623,2.9208171 7.8065217,2.9150901 7.8027344,2.9101562 7.6999995,2.7763283 7.5777665,2.6610253 7.4472656,2.5585938 7.4438685,2.5540899 7.440938,2.5494007 7.4375,2.5449219 7.3344111,2.4106279 7.2111136,2.2979844 7.0800781,2.1953125 c -0.00407,-0.00541 -0.00564,-0.0122 -0.00977,-0.017578 C 6.9666856,2.0427391 6.8427859,1.927251 6.7109375,1.8242188 6.706673,1.8185392 6.7035481,1.8122806 6.6992188,1.8066406 6.3761351,1.3857479 5.8991303,1.1100516 5.3730469,1.0410156 5.260415,1.0261646 5.1467225,1.0209376 5.0332031,1.0253906 Z"
     style="opacity:0.25;fill:url(#linearGradient5481);fill-opacity:1;stroke:none;stroke-width:0.88582677;stroke-miterlimit:4;stroke-dasharray:7.08661413, 7.08661413;stroke-dashoffset:0" />
  <path
     style="opacity:1;fill:#666666;stroke:none;stroke-width:0.88582677;stroke-miterlimit:4;stroke-dasharray:7.08661413, 7.08661413000000010;stroke-dashoffset:0"
     d="M 11.751953 4.0039062 A 8 8 0 0 0 10.955078 4.0683594 A 8 8 0 0 0 4.0683594 13.044922 A 8 8 0 0 0 7.0292969 18.269531 L 7.9746094 17.148438 L 8.9042969 17.132812 A 6 6 0 0 1 6.0507812 12.783203 A 6 6 0 0 1 11.216797 6.0507812 A 6 6 0 0 1 11.814453 6.0019531 A 6 6 0 0 1 17.949219 11.216797 A 6 6 0 0 1 15.263672 17.027344 L 15.695312 17.019531 L 16.853516 18.347656 A 8 8 0 0 0 19.931641 10.955078 A 8 8 0 0 0 11.751953 4.0039062 z "
     id="circle4162" />
  <rect
     y="17.975769"
     x="6.7103891"
     height="2"
     width="10.318943"
     id="rect4185"
     style="opacity:1;fill:#666666;stroke:none;stroke-width:0.88582677;stroke-miterlimit:4;stroke-dasharray:7.08661413, 7.08661413000000010;stroke-dashoffset:0" />
  <circle
     style="opacity:1;fill:#ffab00;stroke:none;stroke-width:0.88582677;stroke-miterlimit:4;stroke-dasharray:7.08661413, 7.08661413000000010;stroke-dashoffset:0;fill-opacity:1"
     id="path4150"
     cx="2.3310239"
     cy="21.463654"
     r="2"
     transform="matrix(0.99144486,-0.13052619,0.13052619,0.99144486,0,0)" />
  <circle
     r="2"
     cy="18.331024"
     cx="21.463652"
     id="circle4152"
     style="opacity:1;fill:#d50000;stroke:none;stroke-width:0.88582677;stroke-miterlimit:4;stroke-dasharray:7.08661413, 7.08661413000000010;stroke-dashoffset:0;fill-opacity:1"
     transform="matrix(0.99144486,0.1305262,-0.1305262,0.99144486,0,0)" />
  <circle
     style="opacity:1;fill:#00c853;stroke:none;stroke-width:0.88582677;stroke-miterlimit:4;stroke-dasharray:7.08661413, 7.08661413000000010;stroke-dashoffset:0;fill-opacity:1"
     id="circle4154"
     cx="18.331024"
     cy="5.4636526"
     r="2"
     transform="matrix(0.99144486,-0.13052619,0.13052619,0.99144486,0,0)" />
  <circle
     r="2"
     cy="2.3310239"
     cx="5.4636526"
     id="circle4156"
     style="opacity:1;fill:#1976d2;stroke:none;stroke-width:0.88582677;stroke-miterlimit:4;stroke-dasharray:7.08661413, 7.08661413000000010;stroke-dashoffset:0;fill-opacity:1"
     transform="matrix(0.99144486,0.1305262,-0.1305262,0.99144486,0,0)" />
  <path
     style="opacity:1;fill:#d50000;stroke:none;stroke-width:0.88582677;stroke-miterlimit:4;stroke-dasharray:7.08661413, 7.08661413000000010;stroke-dashoffset:0;fill-opacity:1"
     d="M 13.259766,12 12,13.642578 18.816406,22.525391 20.402344,21.308594 13.259766,12 Z"
     id="rect4198" />
  <path
     style="opacity:1;fill:#00c853;stroke:none;stroke-width:0.88582677;stroke-miterlimit:4;stroke-dasharray:7.08661413, 7.08661413000000010;stroke-dashoffset:0;fill-opacity:1"
     d="M 18.816406,1.4746094 12,10.357422 13.259766,12 20.402344,2.6914062 18.816406,1.4746094 Z"
     id="path4211" />
  <path
     style="opacity:1;fill:#ffab00;stroke:none;stroke-width:0.88582677;stroke-miterlimit:4;stroke-dasharray:7.08661413, 7.08661413000000010;stroke-dashoffset:0;fill-opacity:1"
     d="M 10.740234,12 3.5976562,21.308594 5.1835938,22.525391 12,13.642578 10.740234,12 Z"
     id="rect4166" />
  <path
     style="opacity:1;fill:#1976d2;stroke:none;stroke-width:0.88582677;stroke-miterlimit:4;stroke-dasharray:7.08661413, 7.08661413000000010;stroke-dashoffset:0;fill-opacity:1"
     d="M 5.1835938,1.4746094 3.5976562,2.6914062 10.740234,12 12,10.357422 5.1835938,1.4746094 Z"
     id="path4205" />
  <path
     style="opacity:1;fill:#666666;stroke:none;stroke-width:0.88582677;stroke-miterlimit:4;stroke-dasharray:7.08661413, 7.08661413000000010;stroke-dashoffset:0"
     d="m 12,9 c -1.656854,0 -3,1.343146 -3,3 5.999e-4,1.298904 0.8370313,2.449883 2.072266,2.851562 l 1.853515,-0.002 C 14.161104,14.448837 14.99828,13.298706 15,12 15,10.343146 13.656854,9 12,9 Z"
     id="path4194"
     inkscape:connector-curvature="0"
     sodipodi:nodetypes="sccccs" />
</svg>
