<?xml version="1.0" encoding="UTF-8" standalone="no"?>
<svg
   xmlns:dc="http://purl.org/dc/elements/1.1/"
   xmlns:cc="http://creativecommons.org/ns#"
   xmlns:rdf="http://www.w3.org/1999/02/22-rdf-syntax-ns#"
   xmlns:svg="http://www.w3.org/2000/svg"
   xmlns="http://www.w3.org/2000/svg"
   xmlns:sodipodi="http://sodipodi.sourceforge.net/DTD/sodipodi-0.dtd"
   xmlns:inkscape="http://www.inkscape.org/namespaces/inkscape"
   sodipodi:docname="oax-silhouette.svg"
   inkscape:version="0.91 r13725"
   version="1.1"
   id="svg4136"
   width="24"
   viewBox="0 0 24 24"
   height="24"
   fill="#000000">
  <sodipodi:namedview
     inkscape:current-layer="svg4136"
     inkscape:window-maximized="1"
     inkscape:window-y="-8"
     inkscape:window-x="54"
     inkscape:cy="6.423904"
     inkscape:cx="19.708038"
     inkscape:zoom="11.313708"
     inkscape:snap-tangential="false"
     inkscape:snap-perpendicular="false"
     showgrid="false"
     id="namedview4142"
     inkscape:window-height="1027"
     inkscape:window-width="1618"
     inkscape:pageshadow="2"
     inkscape:pageopacity="0"
     guidetolerance="10"
     gridtolerance="10000"
     objecttolerance="10000"
     borderopacity="1"
     bordercolor="#666666"
     pagecolor="#ffffff">
    <inkscape:grid
       type="xygrid"
       id="grid4148"
       empspacing="2"
       dotted="false"
       snapvisiblegridlinesonly="false" />
  </sodipodi:namedview>
  <metadata
     id="metadata4146">
    <rdf:RDF>
      <cc:Work
         rdf:about="">
        <dc:format>image/svg+xml</dc:format>
        <dc:type
           rdf:resource="http://purl.org/dc/dcmitype/StillImage" />
        <dc:title></dc:title>
      </cc:Work>
    </rdf:RDF>
  </metadata>
  <defs
     id="defs4144">
    <filter
       id="filter5723"
       inkscape:label="Drop Shadow"
       style="color-interpolation-filters:sRGB;">
      <feFlood
         id="feFlood5725"
         result="flood"
         flood-color="rgb(0,0,0)"
         flood-opacity="0.498039" />
      <feComposite
         id="feComposite5727"
         result="composite1"
         operator="in"
         in2="SourceGraphic"
         in="flood" />
      <feGaussianBlur
         id="feGaussianBlur5729"
         result="blur"
         stdDeviation="0.2"
         in="composite1" />
      <feOffset
         id="feOffset5731"
         result="offset"
         dy="0.2"
         dx="0.2" />
      <feComposite
         id="feComposite5733"
         result="composite2"
         operator="out"
         in2="SourceGraphic"
         in="offset" />
    </filter>
    <clipPath
       id="clipPath5737"
       clipPathUnits="userSpaceOnUse">
      <rect
         style="opacity:0.2;fill:#ff0000;fill-opacity:1;stroke:none;stroke-width:0.88582677;stroke-miterlimit:4;stroke-dasharray:7.08661413, 7.08661413;stroke-dashoffset:0"
         id="rect5739"
         width="18.775"
         height="22.952"
         x="2.6125002"
         y="0.52400017"
         rx="2.5"
         ry="2.5" />
    </clipPath>
    <filter
       id="filter6249"
       inkscape:label="Drop Shadow"
       style="color-interpolation-filters:sRGB;">
      <feFlood
         id="feFlood6251"
         result="flood"
         flood-color="rgb(0,0,0)"
         flood-opacity="0.498039" />
      <feComposite
         id="feComposite6253"
         result="composite1"
         operator="out"
         in2="SourceGraphic"
         in="flood" />
      <feGaussianBlur
         id="feGaussianBlur6255"
         result="blur"
         stdDeviation="0"
         in="composite1" />
      <feOffset
         id="feOffset6257"
         result="offset"
         dy="-0.2"
         dx="-0.2" />
      <feComposite
         id="feComposite6259"
         result="composite2"
         operator="in"
         in2="SourceGraphic"
         in="offset" />
    </filter>
  </defs>
  <path
     style="opacity:1;fill:#999999;stroke:none;stroke-width:0.88582677;stroke-miterlimit:4;stroke-dasharray:7.08661413, 7.08661413000000010;stroke-dashoffset:0"
     d="M 11.751953 4.0039062 A 8 8 0 0 0 10.955078 4.0683594 A 8 8 0 0 0 4.0683594 13.044922 A 8 8 0 0 0 7.0292969 18.269531 L 7.9746094 17.148438 L 8.9042969 17.132812 A 6 6 0 0 1 6.0507812 12.783203 A 6 6 0 0 1 11.216797 6.0507812 A 6 6 0 0 1 11.814453 6.0019531 A 6 6 0 0 1 17.949219 11.216797 A 6 6 0 0 1 15.263672 17.027344 L 15.695312 17.019531 L 16.853516 18.347656 A 8 8 0 0 0 19.931641 10.955078 A 8 8 0 0 0 11.751953 4.0039062 z "
     id="circle4162" />
  <rect
     y="17.975769"
     x="6.7103891"
     height="2"
     width="10.318943"
     id="rect4185"
     style="opacity:1;fill:#999999;stroke:none;stroke-width:0.88582677;stroke-miterlimit:4;stroke-dasharray:7.08661413, 7.08661413000000010;stroke-dashoffset:0" />
  <circle
     style="opacity:1;fill:#999999;stroke:none;stroke-width:0.88582677;stroke-miterlimit:4;stroke-dasharray:7.08661413, 7.08661413000000010;stroke-dashoffset:0;fill-opacity:1"
     id="path4150"
     cx="2.3310239"
     cy="21.463654"
     r="2"
     transform="matrix(0.99144486,-0.13052619,0.13052619,0.99144486,0,0)" />
  <circle
     r="2"
     cy="18.331024"
     cx="21.463652"
     id="circle4152"
     style="opacity:1;fill:#999999;stroke:none;stroke-width:0.88582677;stroke-miterlimit:4;stroke-dasharray:7.08661413, 7.08661413000000010;stroke-dashoffset:0;fill-opacity:1"
     transform="matrix(0.99144486,0.1305262,-0.1305262,0.99144486,0,0)" />
  <circle
     style="opacity:1;fill:#999999;stroke:none;stroke-width:0.88582677;stroke-miterlimit:4;stroke-dasharray:7.08661413, 7.08661413000000010;stroke-dashoffset:0;fill-opacity:1"
     id="circle4154"
     cx="18.331024"
     cy="5.4636526"
     r="2"
     transform="matrix(0.99144486,-0.13052619,0.13052619,0.99144486,0,0)" />
  <circle
     r="2"
     cy="2.3310239"
     cx="5.4636526"
     id="circle4156"
     style="opacity:1;fill:#999999;stroke:none;stroke-width:0.88582677;stroke-miterlimit:4;stroke-dasharray:7.08661413, 7.08661413000000010;stroke-dashoffset:0;fill-opacity:1"
     transform="matrix(0.99144486,0.1305262,-0.1305262,0.99144486,0,0)" />
  <path
     style="opacity:1;fill:#999999;stroke:none;stroke-width:0.88582677;stroke-miterlimit:4;stroke-dasharray:7.08661413, 7.08661413000000010;stroke-dashoffset:0;fill-opacity:1"
     d="M 13.259766,12 12,13.642578 18.816406,22.525391 20.402344,21.308594 13.259766,12 Z"
     id="rect4198" />
  <path
     style="opacity:1;fill:#999999;stroke:none;stroke-width:0.88582677;stroke-miterlimit:4;stroke-dasharray:7.08661413, 7.08661413000000010;stroke-dashoffset:0;fill-opacity:1"
     d="M 18.816406,1.4746094 12,10.357422 13.259766,12 20.402344,2.6914062 18.816406,1.4746094 Z"
     id="path4211" />
  <path
     style="opacity:1;fill:#999999;stroke:none;stroke-width:0.88582677;stroke-miterlimit:4;stroke-dasharray:7.08661413, 7.08661413000000010;stroke-dashoffset:0;fill-opacity:1"
     d="M 10.740234,12 3.5976562,21.308594 5.1835938,22.525391 12,13.642578 10.740234,12 Z"
     id="rect4166" />
  <path
     style="opacity:1;fill:#999999;stroke:none;stroke-width:0.88582677;stroke-miterlimit:4;stroke-dasharray:7.08661413, 7.08661413000000010;stroke-dashoffset:0;fill-opacity:1"
     d="M 5.1835938,1.4746094 3.5976562,2.6914062 10.740234,12 12,10.357422 5.1835938,1.4746094 Z"
     id="path4205" />
  <path
     style="opacity:1;fill:#999999;stroke:none;stroke-width:0.88582677;stroke-miterlimit:4;stroke-dasharray:7.08661413, 7.08661413000000010;stroke-dashoffset:0"
     d="m 12,9 c -1.656854,0 -3,1.343146 -3,3 5.999e-4,1.298904 0.8370313,2.449883 2.072266,2.851562 l 1.853515,-0.002 C 14.161104,14.448837 14.99828,13.298706 15,12 15,10.343146 13.656854,9 12,9 Z"
     id="path4194"
     inkscape:connector-curvature="0"
     sodipodi:nodetypes="sccccs" />
</svg>
