<?xml version="1.0" standalone="no"?>
<!DOCTYPE svg PUBLIC "-//W3C//DTD SVG 20010904//EN"
 "http://www.w3.org/TR/2001/REC-SVG-20010904/DTD/svg10.dtd">
<svg version="1.0" xmlns="http://www.w3.org/2000/svg"
 width="700.000000pt" height="700.000000pt" viewBox="0 0 700.000000 700.000000"
 preserveAspectRatio="xMidYMid meet">
<metadata>
Created by potrace 1.11, written by Peter Selinger 2001-2013
</metadata>
<g transform="translate(0.000000,700.000000) scale(0.100000,-0.100000)"
fill="#000000" stroke="none">
<path d="M3380 6653 c-490 -19 -971 -137 -1380 -341 l-75 -37 -100 50 c-132
67 -229 90 -370 89 -143 -1 -223 -21 -360 -89 -194 -97 -330 -234 -425 -429
-64 -130 -83 -212 -84 -351 -1 -141 22 -238 89 -370 l50 -100 -37 -75 c-174
-349 -288 -759 -329 -1175 -14 -154 -14 -496 0 -650 40 -411 149 -806 319
-1155 l50 -102 -34 -57 c-48 -81 -91 -213 -102 -315 -31 -276 88 -556 320
-752 283 -239 658 -273 973 -87 95 57 263 220 313 305 116 196 159 418 117
608 l-14 65 59 59 59 59 83 -50 c350 -213 762 -317 1133 -285 301 26 613 129
868 287 l71 45 59 -58 c57 -55 58 -58 52 -97 -30 -173 -22 -308 24 -442 80
-231 253 -425 476 -533 139 -67 213 -85 360 -84 174 0 308 41 456 140 192 127
330 315 390 529 17 61 23 107 23 195 1 147 -21 241 -89 375 l-50 100 37 75
c174 349 288 759 329 1175 14 154 14 496 0 650 -41 416 -155 826 -329 1175
l-37 75 47 95 c64 128 90 228 91 360 2 137 -21 238 -83 365 -93 192 -244 342
-435 435 -127 62 -228 85 -365 83 -132 -1 -232 -27 -360 -91 l-95 -47 -75 37
c-351 175 -779 294 -1175 327 -143 12 -341 18 -445 14z m436 -548 c228 -32
460 -100 676 -196 161 -72 221 -107 213 -128 -34 -84 -45 -275 -23 -401 l12
-71 -56 -56 -57 -56 -83 50 c-350 213 -762 317 -1133 285 -301 -26 -613 -129
-868 -287 l-72 -45 -59 59 -59 60 12 70 c22 120 16 256 -14 363 l-14 47 53 30
c84 48 266 127 399 172 185 62 365 99 612 123 74 8 359 -4 461 -19z m-104
-1164 c62 -11 149 -32 192 -46 85 -28 256 -104 256 -114 0 -3 -147 -153 -327
-333 l-328 -328 39 0 c123 0 268 -71 386 -190 119 -118 190 -263 190 -386 l0
-39 328 328 c180 180 330 327 333 327 3 0 25 -40 47 -88 174 -375 174 -769 0
-1145 l-42 -88 -325 325 c-180 179 -329 326 -334 326 -4 0 -7 -15 -7 -33 0
-54 -28 -147 -67 -227 -52 -104 -179 -231 -283 -283 -80 -39 -173 -67 -227
-67 -18 0 -33 -3 -33 -7 0 -5 147 -154 326 -334 l325 -325 -88 -42 c-376 -174
-770 -174 -1145 0 -48 22 -88 44 -88 47 0 3 144 150 320 326 176 176 320 323
320 327 0 5 -17 8 -38 8 -83 0 -224 59 -320 134 -129 100 -242 301 -242 428 0
21 -3 38 -8 38 -4 0 -151 -144 -327 -320 -176 -176 -323 -320 -326 -320 -3 0
-25 40 -47 88 -174 375 -174 769 0 1145 l42 88 325 -325 c180 -179 329 -326
334 -326 4 0 7 15 7 33 0 53 28 146 67 227 51 105 178 232 283 283 81 39 174
67 227 67 18 0 33 3 33 7 0 5 -147 154 -326 334 l-325 325 88 42 c258 119 523
157 785 113z m-2397 -262 c69 -14 231 -13 305 2 l62 12 59 -59 59 -59 -45 -72
c-158 -255 -261 -567 -287 -868 -32 -371 72 -783 285 -1133 l50 -83 -59 -59
-59 -59 -65 14 c-112 24 -288 16 -400 -20 -22 -7 -57 50 -129 213 -98 220
-170 474 -202 712 -17 122 -17 438 0 560 39 295 155 655 282 876 29 51 30 52
62 43 18 -5 55 -14 82 -20z m4514 -22 c91 -159 196 -442 241 -652 43 -196 54
-302 54 -505 0 -203 -11 -309 -54 -505 -45 -209 -150 -493 -240 -650 l-30 -52
-72 19 c-87 23 -252 26 -346 8 l-64 -13 -59 59 -59 59 45 72 c158 255 261 567
287 868 32 371 -72 783 -285 1133 l-50 83 56 56 56 56 84 -13 c101 -15 280 -9
347 13 25 8 48 15 52 16 3 1 20 -23 37 -52z"/>
</g>
</svg>
