<?xml version="1.0" standalone="no"?>
<!DOCTYPE svg PUBLIC "-//W3C//DTD SVG 20010904//EN"
 "http://www.w3.org/TR/2001/REC-SVG-20010904/DTD/svg10.dtd">
<svg version="1.0" xmlns="http://www.w3.org/2000/svg"
 width="700.000000pt" height="700.000000pt" viewBox="0 0 700.000000 700.000000"
 preserveAspectRatio="xMidYMid meet">
<metadata>
Created by potrace 1.11, written by Peter Selinger 2001-2013
</metadata>
<g transform="translate(0.000000,700.000000) scale(0.100000,-0.100000)"
fill="#000000" stroke="none">
<path d="M1345 6681 c-163 -44 -296 -150 -370 -296 -48 -96 -66 -173 -64 -275
3 -157 60 -291 169 -400 119 -120 257 -176 427 -173 l62 1 146 -190 146 -191
-60 -61 c-237 -243 -428 -577 -537 -938 -25 -84 -60 -246 -70 -318 -3 -25 -8
-56 -11 -70 -10 -44 -12 -463 -2 -525 4 -33 11 -78 14 -100 35 -272 162 -612
323 -870 92 -147 232 -329 310 -399 l34 -31 -146 -191 -145 -190 -78 -1 c-162
-1 -296 -56 -408 -168 -112 -112 -163 -224 -172 -380 -5 -84 -2 -113 17 -182
66 -244 269 -412 519 -430 280 -19 527 156 606 431 28 96 19 269 -19 356 -4 9
5 29 23 50 l28 35 1413 0 1414 -1 28 -35 c28 -35 28 -35 13 -80 -84 -235 16
-519 233 -662 108 -71 184 -92 327 -91 105 0 128 4 187 26 129 51 227 130 298
240 84 129 111 301 72 455 -64 253 -292 433 -555 436 l-87 1 -140 182 c-76 99
-140 186 -142 191 -2 6 23 39 54 74 348 391 558 853 615 1354 15 132 9 471
-10 585 -79 464 -281 859 -631 1234 -25 27 -46 52 -46 55 0 6 39 58 227 303
l72 94 78 1 c176 1 334 73 446 205 193 227 181 568 -29 783 -256 261 -697 221
-897 -83 -40 -61 -94 -182 -82 -182 3 0 1 -9 -5 -21 -25 -45 -10 -248 24 -329
4 -10 -44 -80 -140 -205 -80 -105 -149 -194 -154 -198 -4 -5 -64 20 -131 55
-101 53 -188 93 -219 103 -3 1 -18 7 -35 14 -90 38 -274 91 -401 116 -138 27
-184 30 -419 29 -227 -1 -265 -5 -480 -49 -152 -31 -382 -116 -551 -204 l-112
-58 -54 71 c-30 39 -95 125 -146 191 l-91 120 14 42 c32 93 37 238 10 330 -75
259 -294 428 -560 431 -49 1 -107 -6 -150 -17z m2365 -1446 c129 -21 325 -75
410 -113 147 -65 181 -84 176 -98 -5 -12 -451 -601 -466 -614 -3 -3 -18 -22
-33 -43 -16 -20 -32 -35 -37 -32 -4 3 -41 12 -81 21 -101 22 -272 20 -371 -4
l-77 -19 -29 36 c-29 36 -435 565 -485 632 l-28 37 93 45 c52 26 142 62 202
82 111 38 122 40 190 51 22 3 44 8 48 10 4 2 42 7 85 11 43 3 80 7 82 9 6 6
279 -4 321 -11z m-1364 -711 c60 -77 120 -156 134 -174 14 -18 84 -110 156
-204 l131 -170 -23 -37 c-114 -181 -149 -471 -83 -683 23 -75 63 -166 90 -206
l17 -25 -165 -215 c-90 -118 -172 -224 -181 -235 -9 -12 -57 -73 -106 -138
-49 -64 -92 -117 -96 -117 -4 0 -28 24 -52 53 -169 199 -298 448 -364 702 -17
65 -19 71 -28 130 -16 98 -18 128 -20 250 -5 338 102 688 302 985 63 94 172
233 178 227 1 -1 51 -65 110 -143z m2457 114 c241 -275 380 -568 433 -913 9
-64 11 -344 2 -399 -26 -163 -34 -202 -65 -306 -41 -136 -99 -273 -165 -390
-52 -91 -154 -236 -201 -285 l-28 -30 -22 27 c-12 14 -29 35 -37 46 -48 64
-435 568 -469 611 -19 24 -18 24 8 70 150 256 151 594 4 858 -12 23 -23 46
-23 51 0 7 74 105 248 329 9 12 75 99 147 193 71 93 132 170 135 170 2 0 17
-15 33 -32z m-832 -2230 c110 -145 211 -276 224 -293 179 -230 265 -349 257
-354 -13 -8 -1900 -6 -1908 2 -3 3 19 39 51 79 31 40 67 87 80 103 12 17 102
134 199 260 97 127 217 283 267 348 l90 117 269 0 269 0 202 -262z"/>
</g>
</svg>
